<svg width="8" height="13" viewBox="0 0 8 13" fill="none" xmlns="http://www.w3.org/2000/svg">
<path d="M0.172135 7.45229L6.26116 12.7625C6.36698 12.8543 6.50776 12.9031 6.65266 12.8983C6.79756 12.8935 6.93478 12.8354 7.03424 12.7367C7.08301 12.6886 7.12111 12.632 7.14633 12.5702C7.17156 12.5084 7.18341 12.4426 7.18121 12.3766C7.17901 12.3107 7.1628 12.2458 7.13352 12.1858C7.10423 12.1258 7.06245 12.0719 7.01058 12.0271L1.30968 7.07417L6.66705 1.72255C6.71582 1.67441 6.75392 1.61781 6.77914 1.556C6.80437 1.4942 6.81622 1.42841 6.81402 1.36244C6.81182 1.29647 6.79561 1.23162 6.76633 1.17163C6.73704 1.11164 6.69526 1.0577 6.64339 1.01292C6.53309 0.931732 6.39322 0.893392 6.25286 0.905871C6.18242 0.907419 6.11304 0.922672 6.04918 0.95065C5.98532 0.978627 5.92839 1.01871 5.88205 1.06832L0.148478 6.74267C0.0997075 6.7908 0.0616106 6.84741 0.0363853 6.90921C0.0111599 6.97102 -0.000694642 7.0368 0.00150469 7.10278C0.00370403 7.16875 0.0199137 7.2336 0.0491995 7.29359C0.0784852 7.35358 0.120267 7.40752 0.172135 7.45229Z" fill="white"/>
</svg>
